<svg width="375" height="242" viewBox="0 0 375 242" fill="none" xmlns="http://www.w3.org/2000/svg">
<path d="M228.403 116.96H151.936L174.252 139.564L125.761 188.679L157.595 220.924L206.087 171.808L228.403 194.412V116.96Z" fill="#1C3CA1"/>
<path d="M146.952 148.715H114.056L123.66 158.432L102.801 179.559L116.5 193.423L137.348 172.306L146.952 182.023V148.715Z" fill="#031544"/>
<path d="M271.706 108.373H253.849L259.069 113.649L247.739 125.114L255.178 132.638L266.497 121.173L271.706 126.449V108.373Z" fill="#031544"/>
<path d="M237.031 216.71H229.507L231.704 218.936L226.934 223.767L230.064 226.937L234.834 222.106L237.031 224.331V216.71Z" fill="#031544"/>
<path d="M229.806 92.998H222.282L224.479 95.2128L219.709 100.055L222.839 103.225L227.609 98.3938L229.806 100.609V92.998Z" fill="#031544"/>
<path d="M185.024 158.844H174.595L177.639 161.927L171.025 168.615L175.366 173.012L181.98 166.313L185.024 169.396V158.844Z" fill="#031544"/>
<path d="M271.706 167.444H248.297L255.125 174.371L240.279 189.407L250.023 199.276L264.868 184.24L271.706 191.155V167.444Z" fill="#1C3CA1"/>
<path d="M122.009 205.581H114.227L116.499 207.883L111.569 212.877L114.806 216.155L119.736 211.161L122.009 213.463V205.581Z" fill="#1C3CA1"/>
<path d="M88.1599 179.58H70.6455L75.7584 184.759L64.6538 196.006L71.9425 203.4L83.0471 192.141L88.1599 197.32V179.58Z" fill="#1C3CA1"/>
<path d="M210.974 151.005H205.1L206.815 152.742L203.096 156.509L205.54 158.985L209.259 155.217L210.974 156.943V151.005Z" fill="white"/>
<path d="M178.272 222.379H172.398L174.113 224.116L170.394 227.883L172.827 230.359L176.557 226.591L178.272 228.328V222.379Z" fill="white"/>
<path d="M292.201 141.755H279.135L282.951 145.62L274.654 154.012L280.099 159.527L288.385 151.135L292.201 155V141.755Z" fill="#1C3CA1"/>
<path d="M129.78 104.943H116.885L120.648 108.754L112.48 117.027L117.839 122.466L126.018 114.182L129.78 117.993V104.943Z" fill="#1C3CA1"/>
<path d="M202.613 66.9203C202.613 66.9203 203.449 67.2568 203.803 67.778C204.167 68.3099 204.489 68.9613 204.692 69.5259C205.1 70.6658 205.218 71.7949 205.293 72.0012C205.378 72.2183 205.1 72.5657 204.778 72.4789C204.446 72.392 204.167 71.2195 204.092 70.9698C203.964 70.5355 203.942 70.0796 203.781 70.2533C203.621 70.427 203.663 71.3824 203.663 71.8383C203.663 72.2943 203.642 73.5754 203.524 74.3679C203.438 74.9216 203.235 75.3125 202.988 75.2582C202.742 75.2039 202.624 74.7479 202.645 74.4005C202.667 74.064 202.785 71.9361 202.752 71.8492C202.71 71.6972 202.559 75.0085 202.463 75.3668C202.367 75.7142 201.648 75.953 201.595 75.1279C201.541 74.3028 201.691 71.8166 201.681 71.7732C201.638 71.6755 201.455 74.5742 201.402 74.8999C201.348 75.2256 200.855 75.4753 200.694 74.9542C200.534 74.4331 200.759 71.5995 200.737 71.5126C200.694 71.3064 200.609 72.0555 200.566 72.6092C200.523 73.2389 200.448 73.8577 200.244 73.9445C199.912 74.0857 199.708 73.7057 199.794 72.8589C199.88 72.0121 199.837 70.0796 199.848 69.6453C199.858 69.2002 200.18 68.0494 200.266 67.7671C200.266 67.626 200.266 67.5717 200.255 67.4088C200.223 67.0831 200.373 66.9528 200.705 66.8443L201.756 66.5077C202.12 66.3992 202.495 66.5729 202.613 66.9203Z" fill="#E8C0A8"/>
<path d="M203.706 66.5515C203.814 65.9435 203.396 55.38 203.053 51.2327C202.581 45.3918 201.831 40.4412 200.812 36.8911C199.612 32.6678 197.318 31.9404 196.428 32.049C193.942 32.353 195.678 34.6112 195.314 37.7596C195.099 39.5618 198.937 49.4197 198.947 50.6899C198.958 51.9493 199.794 65.1944 199.805 66.6275C199.858 67.0292 203.642 66.8772 203.706 66.5515Z" fill="#D7D7D7"/>
<path d="M205.636 113.211C205.636 113.211 202.463 111.658 201.905 110.54C201.905 110.54 200.148 110.54 199.655 112.321C199.655 112.321 197.254 112.744 196.032 111.311L195.742 115.914L210.159 115.903C209.762 114.839 209.451 113.688 205.636 113.211Z" fill="#2D2A25"/>
<path d="M196.042 111.301C196.288 111.594 196.567 111.822 196.878 111.952C197.232 112.886 197.896 114.623 198.947 115.904H195.742L196.042 111.301Z" fill="#2D2A25"/>
<path d="M195.742 115.903L195.667 116.967L210.234 116.957C210.256 116.533 210.341 116.316 210.159 115.893L195.742 115.903Z" fill="#EFEDED"/>
<path d="M188.465 115.159L187.757 112.347C187.757 112.347 187.093 110.426 185.035 110.426C182.977 110.426 182.312 112.347 182.312 112.347L181.809 115.485L188.465 115.159Z" fill="#2D2A25"/>
<path d="M188.732 115.94C188.764 116.157 188.775 116.537 188.528 116.928H181.893C181.893 116.928 181.668 116.493 181.679 115.918L188.732 115.94Z" fill="#EAE7E4"/>
<path d="M181.68 115.882C181.712 115.274 182.977 113.418 185.099 113.418C187.811 113.418 188.432 114.97 188.679 115.785C188.679 115.785 188.711 115.85 188.722 115.969L181.669 115.958C181.68 115.926 181.68 115.904 181.68 115.882Z" fill="#2D2A25"/>
<path d="M202.946 62.7735L203.203 111.422C203.203 111.422 199.441 113.333 195.904 111.846L194.553 71.3503L193.503 71.296L188.39 111.846C188.39 111.846 185.689 113.072 181.691 111.585L185.743 62.7627H202.946V62.7735Z" fill="#00283E"/>
<path d="M185.743 62.7715H202.989V69.5678C201.574 70.1975 198.723 71.2071 194.607 71.9345L194.564 71.3483L193.514 71.294L193.396 72.1299C190.995 72.4991 188.197 72.7596 184.992 72.8248L185.743 62.7715Z" fill="#071A29"/>
<path d="M190.244 92.7488H172.312C170.983 92.7488 169.911 91.6632 169.911 90.3169V79.71H192.645V90.3169C192.645 91.6632 191.574 92.7488 190.244 92.7488Z" fill="#333232"/>
<path d="M189.944 82.8145H172.612C171.122 82.8145 169.911 81.5877 169.911 80.0786V78.1353C169.911 76.6262 171.122 75.3994 172.612 75.3994H189.944C191.434 75.3994 192.645 76.6262 192.645 78.1353V80.0786C192.645 81.5877 191.434 82.8145 189.944 82.8145Z" fill="#1D1D1B"/>
<path d="M189.944 82.3575H172.612C171.122 82.3575 169.911 81.1307 169.911 79.6216V77.6783C169.911 76.1692 171.122 74.9424 172.612 74.9424H189.944C191.434 74.9424 192.645 76.1692 192.645 77.6783V79.6216C192.645 81.1307 191.434 82.3575 189.944 82.3575Z" fill="#454444"/>
<path d="M181.272 79.8936C179.021 79.8936 177.199 78.0372 177.199 75.7681C177.199 73.4882 179.032 71.6426 181.272 71.6426C183.513 71.6426 185.345 73.4991 185.345 75.7681C185.356 78.0372 183.523 79.8936 181.272 79.8936ZM181.272 72.9562C179.75 72.9562 178.507 74.2156 178.507 75.7572C178.507 77.2989 179.75 78.5583 181.272 78.5583C182.794 78.5583 184.038 77.2989 184.038 75.7572C184.038 74.2156 182.805 72.9562 181.272 72.9562Z" fill="#454444"/>
<path d="M182.13 83.9435H180.265C179.943 83.9435 179.675 83.672 179.675 83.3463V82.4018C179.675 82.0761 179.943 81.8047 180.265 81.8047H182.13C182.451 81.8047 182.719 82.0761 182.719 82.4018V83.3463C182.719 83.672 182.462 83.9435 182.13 83.9435Z" fill="#6B686C"/>
<path d="M192.217 85.583C192.217 85.583 192.217 90.5988 192.217 91.1742C192.217 91.7496 191.809 92.4987 190.705 92.4987C189.601 92.4987 184.349 92.4987 184.349 92.4987C184.349 92.4987 190.041 92.2056 190.48 92.1296C190.909 92.0644 191.659 91.7605 191.745 91.0331C191.831 90.2948 192.217 85.583 192.217 85.583Z" fill="#454444"/>
<path d="M194.874 30.1269L194.949 33.3513L190.726 33.5033L190.629 29.3018C192.409 30.3223 194.156 30.2354 194.874 30.1269Z" fill="#E8C0A8"/>
<path d="M190.629 29.3013L190.554 26.0661L194.777 25.9141L194.874 30.1264C194.156 30.235 192.409 30.3219 190.629 29.3013Z" fill="#CF9F82"/>
<path d="M193.138 34.0874C190.63 34.0874 190.03 32.3286 189.944 31.7858C191.723 31.3298 193.481 31.1561 195.668 31.5252C195.721 32.1549 195.593 34.0874 193.138 34.0874Z" fill="#E8C0A8"/>
<path d="M186.654 32.558C187.05 32.2974 188.38 31.7872 188.873 31.6786C189.033 31.646 190.566 31.5483 190.716 31.5158C190.823 32.0694 192.517 33.4482 193.675 33.47C195.561 33.5025 195.486 32.1237 195.422 31.4832C195.647 31.5158 195.872 31.3638 196.086 31.4723C196.976 31.9392 199.409 34.5013 200.845 40.0491C201.982 44.4352 204.34 54.5102 203.6 66.192C203.6 66.192 196.161 68.9061 184.221 66.5937C184.221 66.5937 184.907 40.7874 185.132 38.0189C185.346 35.2722 185.41 33.3614 186.654 32.558Z" fill="#E9E9E9"/>
<path d="M192.999 35.0891L194.157 35.8165L196.954 59.1258L198.68 62.1874C198.68 62.1874 200.223 59.4298 200.127 58.6807C200.03 57.9315 195.893 37.0542 195.175 35.6645C195.454 35.1651 195.711 34.6006 195.711 34.6006C195.711 34.6006 194.478 32.8526 194.082 32.8852C193.696 32.9069 192.999 35.0891 192.999 35.0891Z" fill="#00283E"/>
<path d="M182.249 68.2997C182.249 68.2997 183.074 68.7014 183.395 69.255C183.728 69.8196 184.006 70.5036 184.167 71.0898C184.5 72.2841 184.532 73.424 184.607 73.652C184.671 73.8691 184.371 74.2057 184.049 74.0971C183.717 73.9886 183.524 72.7835 183.46 72.512C183.363 72.0561 183.374 71.6001 183.203 71.7629C183.031 71.9258 183.063 72.7075 182.988 73.2069C182.967 73.3263 182.945 73.5543 182.924 73.6411C182.838 74.1514 182.731 74.0971 182.377 74.0537C182.131 74.0211 181.959 73.9668 182.002 73.6194C182.013 73.5109 182.056 73.4023 182.034 73.3154C182.002 73.424 181.981 73.5651 181.906 73.728C181.756 74.0646 180.994 74.0971 180.973 73.576C180.952 73.3263 180.962 73.1092 180.952 73.1526C180.941 73.272 180.909 73.4023 180.866 73.6628C180.812 73.9994 180.019 74.1514 179.998 73.5977C179.987 73.2394 180.03 72.9137 180.019 72.8269C179.955 73.044 179.965 73.3263 179.933 73.5C179.88 73.7931 179.88 73.956 179.676 73.9668C179.472 73.9886 179.237 73.9994 179.237 73.8366C179.076 72.8377 179.215 71.3178 179.247 70.8618C179.29 70.4167 179.698 69.2768 179.805 68.9836C179.815 68.8425 179.815 68.7773 179.815 68.6254C179.805 68.2888 179.976 68.1694 180.308 68.0934L181.391 67.8328C181.788 67.7351 182.163 67.9414 182.249 68.2997Z" fill="#E8C0A8"/>
<path d="M183.406 69.2551C183.556 68.6471 185.646 53.2849 185.86 51.8844C186.075 50.4731 188.433 42.2328 189.462 38.6176C190.202 36.0337 189.558 33.0264 187.307 32.6247C184.799 32.1796 182.934 34.4703 182.345 37.6405C182.002 39.4535 179.772 50.2885 179.697 51.5696C179.622 52.8507 179.526 67.594 179.44 69.0488C179.472 69.4505 183.32 69.5808 183.406 69.2551Z" fill="white"/>
<path d="M190.63 31.1367C189.612 31.3104 188.422 31.7881 188.422 31.7881C188.422 31.7881 190.383 34.6868 192.591 36.3696C193.449 35.0125 194.167 32.8086 194.167 32.8086C194.167 32.8086 191.938 32.4178 190.63 31.1367Z" fill="white"/>
<path d="M194.049 32.8958L195.957 35.3495C195.957 35.3495 196.868 33.1998 196.086 31.4736C195.796 31.3325 194.907 31.1045 194.907 31.1045C194.907 31.1045 194.789 32.3747 194.049 32.8958Z" fill="white"/>
<path d="M189.493 28.3651C189.493 28.3651 200.523 30.1239 202.002 26.9429C202.227 26.4652 201.927 23.2842 201.605 21.0151C201.123 17.6713 199.966 13.5132 198.176 11.1681C195.217 7.30315 187.768 3.32961 184.23 6.53233C180.693 9.7459 173.78 19.4301 189.493 28.3651Z" fill="#E8C0A8"/>
<path d="M197.982 15.5546C197.972 15.5546 197.972 15.5546 197.961 15.5546L197.95 14.9141C199.601 15.7283 201.316 16.0866 202.934 16.5534C201.423 20.0927 197.94 18.931 197.307 15.6632C197.554 15.5546 197.832 15.5437 197.982 15.5546C198.165 15.5763 198.132 15.5546 197.982 15.5546Z" fill="#E8C0A8"/>
<path d="M193.438 7.03223L194.028 7.25952C193.889 7.28116 193.674 7.18375 193.438 7.03223Z" fill="#D0904B"/>
<path d="M188.84 21.3083C189.322 23.5665 190.555 28.0394 189.344 29.3857C186.611 28.3977 183.127 26.6606 180.887 24.739C178.7 22.8717 175.517 18.3553 177.618 13.7955C179.397 8.98599 180.437 7.80261 182.194 6.92322C183.62 6.20668 186.557 5.04502 188.636 5.15358C189.59 5.20787 190.619 5.39243 191.52 5.70728C192.045 5.88098 192.935 6.68438 193.578 7.08607L193.288 6.9775C192.484 8.4323 188.669 7.75919 188.433 9.45283C188.154 11.4179 191.273 15.6194 191.252 17.5845C191.241 19.2564 189.012 19.1153 188.84 21.3083Z" fill="#031544"/>
<path d="M187.874 20.6043C188.882 21.8203 190.983 22.6563 191.765 21.9831C192.547 21.31 192.365 19.7792 191.358 18.5741C190.35 17.3691 188.603 16.0445 187.606 16.9999C186.867 17.7056 186.867 19.3884 187.874 20.6043Z" fill="#E8C0A8"/>
<path d="M184.049 6.20732C183.063 6.55473 183.202 6.88043 184.177 7.65125C184.82 8.16152 187.489 10.4197 188.186 9.90944L188.615 10.2351C189.89 10.0831 191.412 9.56203 192.624 9.1169C193.299 8.8672 194.671 8.4655 195.271 7.98781C196.74 6.84786 197.436 1.72351 195.646 1.16982C193.856 0.616134 193.374 2.65719 193.374 2.65719C193.374 2.65719 194.542 0.192724 192.42 0.00816053C190.298 -0.176403 190.298 2.83089 190.298 2.83089C190.298 2.83089 190.394 2.26635 189.955 2.26635C189.515 2.2772 189.89 2.93946 189.279 3.49315C187.339 5.26279 185.571 5.67534 184.049 6.20732Z" fill="#031544"/>
<path d="M197.639 12.3633C197.993 12.9495 199.236 15.0992 197.564 16.0328C195.892 16.9665 195.185 14.0026 195.185 14.0026C195.185 14.0026 196.878 12.7975 197.639 12.3633Z" fill="url(#paint0_linear_199_2433)"/>
<path d="M197.168 12.3954C195.261 13.188 194.328 14.7405 196.032 13.8937C197.737 13.0468 198.165 11.9829 197.168 12.3954Z" fill="url(#paint1_linear_199_2433)"/>
<path d="M196.921 16.075C196.986 14.8482 198.251 14.7396 198.583 15.619" stroke="#4B2B19" stroke-width="0.3086" stroke-miterlimit="10"/>
<path d="M196.182 22.0918C196.096 22.4935 196.321 22.8735 196.557 23.1449C196.803 23.4272 197.146 23.6226 197.511 23.7094C198.25 23.894 199.044 23.7746 199.826 23.6334L199.269 23.8506C199.076 23.894 198.883 23.9483 198.679 23.9809C198.283 24.046 197.865 24.0351 197.457 23.9483C197.061 23.8397 196.664 23.6117 196.418 23.2643C196.171 22.9278 196.01 22.4718 196.182 22.0918Z" fill="#A56052"/>
<path d="M174.112 241.671L212.764 202.521" stroke="#606060" stroke-width="0.5" stroke-miterlimit="10" stroke-linecap="round"/>
<path d="M246.625 156.705L274.161 128.814" stroke="#606060" stroke-width="0.3562" stroke-miterlimit="10" stroke-linecap="round"/>
<path d="M75.3286 164.903L102.865 137.001" stroke="#606060" stroke-width="0.3562" stroke-miterlimit="10" stroke-linecap="round"/>
<path d="M99.8857 145.111L113.177 131.648" stroke="#606060" stroke-width="0.3562" stroke-miterlimit="10" stroke-linecap="round"/>
<path d="M270.849 139.086L284.14 125.624" stroke="#606060" stroke-width="0.3562" stroke-miterlimit="10" stroke-linecap="round"/>
<path d="M213.493 54.3068L241.029 26.416" stroke="#606060" stroke-width="0.3562" stroke-miterlimit="10" stroke-linecap="round"/>
<path d="M237.717 36.6859L251.008 23.2236" stroke="#606060" stroke-width="0.3562" stroke-miterlimit="10" stroke-linecap="round"/>
<path d="M144.133 67.8226L157.424 54.3604" stroke="#606060" stroke-width="0.3562" stroke-miterlimit="10" stroke-linecap="round"/>
<path d="M234.609 106.59L247.901 93.1279" stroke="#606060" stroke-width="0.3562" stroke-miterlimit="10" stroke-linecap="round"/>
<path d="M195.186 227.882L208.477 214.42" stroke="#606060" stroke-width="0.3562" stroke-miterlimit="10" stroke-linecap="round"/>
<path d="M141.838 110.425L155.129 96.9629" stroke="#606060" stroke-width="0.3562" stroke-miterlimit="10" stroke-linecap="round"/>
<path d="M143.811 105.71L157.102 92.248" stroke="#606060" stroke-width="0.3562" stroke-miterlimit="10" stroke-linecap="round"/>
<path d="M252.134 64.0542C252.134 64.8467 251.502 65.4873 250.719 65.4873C249.937 65.4873 249.304 64.8467 249.304 64.0542C249.304 63.2616 249.937 62.6211 250.719 62.6211C251.502 62.6211 252.134 63.2616 252.134 64.0542Z" stroke="#031544" stroke-width="0.3562" stroke-miterlimit="10" stroke-linecap="round"/>
<path d="M132.964 28.2408C132.964 28.8379 132.492 29.3156 131.903 29.3156C131.313 29.3156 130.842 28.8379 130.842 28.2408C130.842 27.6437 131.313 27.166 131.903 27.166C132.482 27.166 132.964 27.6437 132.964 28.2408Z" stroke="#031544" stroke-width="0.3562" stroke-miterlimit="10" stroke-linecap="round"/>
<path d="M113.155 71.5796C113.155 72.3721 112.523 73.0126 111.74 73.0126C110.958 73.0126 110.325 72.3721 110.325 71.5796C110.325 70.787 110.958 70.1465 111.74 70.1465C112.523 70.1465 113.155 70.787 113.155 71.5796Z" stroke="#031544" stroke-width="0.3562" stroke-miterlimit="10" stroke-linecap="round"/>
<path d="M67.5372 118.142C67.5372 119.13 66.744 119.933 65.7686 119.933C64.7932 119.933 64 119.13 64 118.142C64 117.154 64.7932 116.351 65.7686 116.351C66.744 116.351 67.5372 117.154 67.5372 118.142Z" stroke="#031544" stroke-width="0.3562" stroke-miterlimit="10" stroke-linecap="round"/>
<path d="M291.385 96.6481C291.385 97.2452 290.913 97.7229 290.324 97.7229C289.734 97.7229 289.263 97.2452 289.263 96.6481C289.263 96.0509 289.734 95.5732 290.324 95.5732C290.903 95.5841 291.385 96.0618 291.385 96.6481Z" stroke="#031544" stroke-width="0.3562" stroke-miterlimit="10" stroke-linecap="round"/>
<path d="M290.324 217.007C290.324 217.8 289.692 218.44 288.91 218.44C288.127 218.44 287.495 217.8 287.495 217.007C287.495 216.215 288.127 215.574 288.91 215.574C289.692 215.574 290.324 216.215 290.324 217.007Z" stroke="#031544" stroke-width="0.3562" stroke-miterlimit="10" stroke-linecap="round"/>
<path d="M28.2864 238.13C28.2864 238.728 27.8147 239.205 27.2252 239.205C26.6357 239.205 26.1641 238.728 26.1641 238.13C26.1641 237.533 26.6357 237.056 27.2252 237.056C27.8147 237.056 28.2864 237.533 28.2864 238.13Z" stroke="#031544" stroke-width="0.3562" stroke-miterlimit="10" stroke-linecap="round"/>
<path d="M315.647 238.49C317.21 238.49 318.477 237.207 318.477 235.624C318.477 234.041 317.21 232.758 315.647 232.758C314.084 232.758 312.817 234.041 312.817 235.624C312.817 237.207 314.084 238.49 315.647 238.49Z" stroke="#031544" stroke-width="0.3562" stroke-miterlimit="10" stroke-linecap="round"/>
<path d="M2.12229 158.259C2.12229 158.857 1.65067 159.334 1.06114 159.334C0.471611 159.334 0 158.857 0 158.259C0 157.662 0.471611 157.185 1.06114 157.185C1.65067 157.185 2.12229 157.662 2.12229 158.259Z" stroke="#031544" stroke-width="0.3562" stroke-miterlimit="10" stroke-linecap="round"/>
<path d="M371.451 158.521C371.451 159.314 370.818 159.954 370.036 159.954C369.254 159.954 368.621 159.314 368.621 158.521C368.621 157.728 369.254 157.088 370.036 157.088C370.818 157.088 371.451 157.728 371.451 158.521Z" stroke="#031544" stroke-width="0.3562" stroke-miterlimit="10" stroke-linecap="round"/>
<path d="M329.431 28.238C329.431 30.2139 327.844 31.8207 325.894 31.8207C323.943 31.8207 322.356 30.2139 322.356 28.238C322.356 26.2621 323.943 24.6553 325.894 24.6553C327.855 24.6553 329.431 26.2621 329.431 28.238Z" stroke="#031544" stroke-width="0.3562" stroke-miterlimit="10" stroke-linecap="round"/>
<path d="M99.7141 11.0514C99.7141 11.6485 99.2425 12.1262 98.653 12.1262C98.0634 12.1262 97.5918 11.6485 97.5918 11.0514C97.5918 10.4543 98.0634 9.97656 98.653 9.97656C99.2425 9.97656 99.7141 10.4543 99.7141 11.0514Z" stroke="#031544" stroke-width="0.3562" stroke-miterlimit="10" stroke-linecap="round"/>
<path d="M284.665 6.39291C284.665 7.38087 283.872 8.18426 282.897 8.18426C281.921 8.18426 281.128 7.38087 281.128 6.39291C281.128 5.40496 281.921 4.60156 282.897 4.60156C283.872 4.60156 284.665 5.40496 284.665 6.39291Z" stroke="#031544" stroke-width="0.3562" stroke-miterlimit="10" stroke-linecap="round"/>
<path d="M369.715 222.818C370.571 222.818 371.255 223.042 371.767 223.49C372.287 223.938 372.547 224.57 372.547 225.386C372.547 226.138 372.299 226.726 371.803 227.15C371.315 227.566 370.667 227.778 369.859 227.786L369.799 228.686H367.999L367.939 226.454H368.659C369.275 226.454 369.743 226.378 370.063 226.226C370.391 226.074 370.555 225.798 370.555 225.398C370.555 225.118 370.479 224.898 370.327 224.738C370.175 224.578 369.963 224.498 369.691 224.498C369.403 224.498 369.179 224.582 369.019 224.75C368.859 224.91 368.779 225.13 368.779 225.41H366.847C366.831 224.922 366.931 224.482 367.147 224.09C367.371 223.698 367.699 223.39 368.131 223.166C368.571 222.934 369.099 222.818 369.715 222.818ZM368.923 231.806C368.563 231.806 368.267 231.702 368.035 231.494C367.811 231.278 367.699 231.014 367.699 230.702C367.699 230.382 367.811 230.114 368.035 229.898C368.267 229.682 368.563 229.574 368.923 229.574C369.275 229.574 369.563 229.682 369.787 229.898C370.019 230.114 370.135 230.382 370.135 230.702C370.135 231.014 370.019 231.278 369.787 231.494C369.563 231.702 369.275 231.806 368.923 231.806Z" fill="#E7FCFF"/>
<path d="M73.7782 232.92L72.4942 231.06L71.4142 232.92H69.1942L71.4022 229.5L69.1342 226.224H71.4382L72.7222 228.072L73.8022 226.224H76.0222L73.7782 229.596L76.0822 232.92H73.7782ZM78.2169 227.496H80.3049V228.696H76.5969V227.544L78.0609 226.656C78.5089 226.376 78.7329 226.088 78.7329 225.792C78.7329 225.688 78.7049 225.608 78.6489 225.552C78.5929 225.488 78.5209 225.456 78.4329 225.456C78.2169 225.456 78.0969 225.6 78.0729 225.888H76.5369C76.5609 225.424 76.7529 225.052 77.1129 224.772C77.4809 224.492 77.9729 224.352 78.5889 224.352C79.1649 224.352 79.6049 224.484 79.9089 224.748C80.2129 225.012 80.3649 225.324 80.3649 225.684C80.3649 225.972 80.2569 226.224 80.0409 226.44C79.8249 226.656 79.4609 226.888 78.9489 227.136L78.2169 227.496Z" fill="#E7FCFF"/>
<defs>
<linearGradient id="paint0_linear_199_2433" x1="196.392" y1="13.2953" x2="197.771" y2="15.7985" gradientUnits="userSpaceOnUse">
<stop stop-color="#C9926A"/>
<stop offset="1" stop-color="#C9926A" stop-opacity="0"/>
</linearGradient>
<linearGradient id="paint1_linear_199_2433" x1="195.035" y1="13.5213" x2="197.808" y2="12.9332" gradientUnits="userSpaceOnUse">
<stop stop-color="#502F26"/>
<stop offset="1" stop-color="#3B221D"/>
</linearGradient>
</defs>
</svg>
